# xmcd
#
# Track frame offsets: 
#        150
#        12663
#        28848
#        38013
#        52241
#        70903
#        86536
#        100965
#        104100
#        118052
#        139087
#
# Disc length: 2063 seconds
#
# Revision: 1
# Processed by: cddbd v1.5.2PL0 Copyright (c) Steve Scherf et al.
# Submitted via: ExactAudioCopyFreeDBPlugin 1.0
#
DISCID=a1080d0b
DTITLE=Eagles Of Death Metal - Zipper Down
DYEAR=2015
DGENRE=Rock
TTITLE0=Complexity
TTITLE1=Silverlake (K.S.O.F.M.)
TTITLE2=Got a Woman
TTITLE3=I Love You All The Time
TTITLE4=Oh Girl
TTITLE5=Got the Power
TTITLE6=Skin-Tight Boogie
TTITLE7=Got a Woman (slight return)
TTITLE8=The Deuce
TTITLE9=Save a Prayer
TTITLE10=The Reverend
EXTD=
EXTT0=
EXTT1=
EXTT2=
EXTT3=
EXTT4=
EXTT5=
EXTT6=
EXTT7=
EXTT8=
EXTT9=
EXTT10=
PLAYORDER=
